%TF.GenerationSoftware,KiCad,Pcbnew,8.0.4*%
%TF.CreationDate,2024-09-11T11:19:10+03:00*%
%TF.ProjectId,micro_diplekser,6d696372-6f5f-4646-9970-6c656b736572,rev?*%
%TF.SameCoordinates,Original*%
%TF.FileFunction,Soldermask,Top*%
%TF.FilePolarity,Negative*%
%FSLAX46Y46*%
G04 Gerber Fmt 4.6, Leading zero omitted, Abs format (unit mm)*
G04 Created by KiCad (PCBNEW 8.0.4) date 2024-09-11 11:19:10*
%MOMM*%
%LPD*%
G01*
G04 APERTURE LIST*
G04 Aperture macros list*
%AMRoundRect*
0 Rectangle with rounded corners*
0 $1 Rounding radius*
0 $2 $3 $4 $5 $6 $7 $8 $9 X,Y pos of 4 corners*
0 Add a 4 corners polygon primitive as box body*
4,1,4,$2,$3,$4,$5,$6,$7,$8,$9,$2,$3,0*
0 Add four circle primitives for the rounded corners*
1,1,$1+$1,$2,$3*
1,1,$1+$1,$4,$5*
1,1,$1+$1,$6,$7*
1,1,$1+$1,$8,$9*
0 Add four rect primitives between the rounded corners*
20,1,$1+$1,$2,$3,$4,$5,0*
20,1,$1+$1,$4,$5,$6,$7,0*
20,1,$1+$1,$6,$7,$8,$9,0*
20,1,$1+$1,$8,$9,$2,$3,0*%
G04 Aperture macros list end*
%ADD10R,2.000000X2.250000*%
%ADD11R,3.000000X1.250000*%
%ADD12RoundRect,0.225000X0.250000X-0.225000X0.250000X0.225000X-0.250000X0.225000X-0.250000X-0.225000X0*%
%ADD13RoundRect,0.225000X-0.225000X-0.250000X0.225000X-0.250000X0.225000X0.250000X-0.225000X0.250000X0*%
%ADD14RoundRect,0.218750X0.256250X-0.218750X0.256250X0.218750X-0.256250X0.218750X-0.256250X-0.218750X0*%
%ADD15RoundRect,0.218750X-0.218750X-0.256250X0.218750X-0.256250X0.218750X0.256250X-0.218750X0.256250X0*%
G04 APERTURE END LIST*
D10*
%TO.C,J3*%
X80154400Y-96734000D03*
D11*
X79654400Y-99234000D03*
X79654400Y-94234000D03*
%TD*%
D10*
%TO.C,J2*%
X80131000Y-88900000D03*
D11*
X79631000Y-91400000D03*
X79631000Y-86400000D03*
%TD*%
D10*
%TO.C,J1*%
X51265200Y-93207200D03*
D11*
X51765200Y-90707200D03*
X51765200Y-95707200D03*
%TD*%
D12*
%TO.C,C1*%
X62200000Y-88950000D03*
X62200000Y-87400000D03*
%TD*%
D13*
%TO.C,C3*%
X58825000Y-96060900D03*
X60375000Y-96060900D03*
%TD*%
D14*
%TO.C,L4*%
X62400000Y-98587500D03*
X62400000Y-97012500D03*
%TD*%
D13*
%TO.C,C8*%
X58825000Y-97600000D03*
X60375000Y-97600000D03*
%TD*%
%TO.C,C10*%
X70000000Y-97600000D03*
X71550000Y-97600000D03*
%TD*%
D14*
%TO.C,L5*%
X68000000Y-98587500D03*
X68000000Y-97012500D03*
%TD*%
D13*
%TO.C,C5*%
X64450000Y-97600000D03*
X66000000Y-97600000D03*
%TD*%
D15*
%TO.C,L7*%
X68812500Y-89000000D03*
X70387500Y-89000000D03*
%TD*%
%TO.C,L3*%
X75612500Y-89000000D03*
X77187500Y-89000000D03*
%TD*%
D12*
%TO.C,C6*%
X63800000Y-88975000D03*
X63800000Y-87425000D03*
%TD*%
D15*
%TO.C,L1*%
X58812500Y-89000000D03*
X60387500Y-89000000D03*
%TD*%
D13*
%TO.C,C4*%
X64450000Y-96000000D03*
X66000000Y-96000000D03*
%TD*%
D12*
%TO.C,C2*%
X72150000Y-89000000D03*
X72150000Y-87450000D03*
%TD*%
%TO.C,C7*%
X73800000Y-89000000D03*
X73800000Y-87450000D03*
%TD*%
D13*
%TO.C,C9*%
X70000000Y-96000000D03*
X71550000Y-96000000D03*
%TD*%
D15*
%TO.C,L2*%
X65612500Y-89000000D03*
X67187500Y-89000000D03*
%TD*%
M02*
