%TF.GenerationSoftware,KiCad,Pcbnew,8.0.3*%
%TF.CreationDate,2024-07-25T20:22:30+03:00*%
%TF.ProjectId,micro_diplekser,6d696372-6f5f-4646-9970-6c656b736572,rev?*%
%TF.SameCoordinates,Original*%
%TF.FileFunction,Copper,L2,Bot*%
%TF.FilePolarity,Positive*%
%FSLAX46Y46*%
G04 Gerber Fmt 4.6, Leading zero omitted, Abs format (unit mm)*
G04 Created by KiCad (PCBNEW 8.0.3) date 2024-07-25 20:22:30*
%MOMM*%
%LPD*%
G01*
G04 APERTURE LIST*
%TA.AperFunction,SMDPad,CuDef*%
%ADD10R,3.000000X1.250000*%
%TD*%
%TA.AperFunction,ViaPad*%
%ADD11C,0.800000*%
%TD*%
G04 APERTURE END LIST*
D10*
%TO.P,J2,2,Ext*%
%TO.N,GND*%
X69721600Y-99386400D03*
X69721600Y-94386400D03*
%TD*%
%TO.P,J1,2,Ext*%
%TO.N,GND*%
X51792000Y-90718000D03*
X51792000Y-95718000D03*
%TD*%
%TO.P,J3,2,Ext*%
%TO.N,GND*%
X69697600Y-91614000D03*
X69697600Y-86614000D03*
%TD*%
D11*
%TO.N,GND*%
X66548000Y-93014800D03*
X61315600Y-93014800D03*
X62331600Y-93014800D03*
X70256400Y-93014800D03*
X60248800Y-93014800D03*
X69342000Y-93014800D03*
X68427600Y-93014800D03*
X60858400Y-99517200D03*
X61518800Y-87376000D03*
X64414400Y-93014800D03*
X64211200Y-99517200D03*
X63449200Y-93014800D03*
X64821750Y-87550600D03*
X65024000Y-99517200D03*
X61671200Y-99517200D03*
X67513200Y-93014800D03*
X60668797Y-87376000D03*
X65481200Y-93014800D03*
X65431350Y-87550600D03*
%TD*%
%TA.AperFunction,Conductor*%
%TO.N,GND*%
G36*
X70664139Y-86016585D02*
G01*
X70709894Y-86069389D01*
X70721100Y-86120900D01*
X70721100Y-99908700D01*
X70701415Y-99975739D01*
X70648611Y-100021494D01*
X70597100Y-100032700D01*
X50814900Y-100032700D01*
X50747861Y-100013015D01*
X50702106Y-99960211D01*
X50690900Y-99908700D01*
X50690900Y-86120900D01*
X50710585Y-86053861D01*
X50763389Y-86008106D01*
X50814900Y-85996900D01*
X70597100Y-85996900D01*
X70664139Y-86016585D01*
G37*
%TD.AperFunction*%
%TD*%
M02*
