%TF.GenerationSoftware,KiCad,Pcbnew,8.0.3*%
%TF.CreationDate,2024-07-25T20:22:30+03:00*%
%TF.ProjectId,micro_diplekser,6d696372-6f5f-4646-9970-6c656b736572,rev?*%
%TF.SameCoordinates,Original*%
%TF.FileFunction,Copper,L1,Top*%
%TF.FilePolarity,Positive*%
%FSLAX46Y46*%
G04 Gerber Fmt 4.6, Leading zero omitted, Abs format (unit mm)*
G04 Created by KiCad (PCBNEW 8.0.3) date 2024-07-25 20:22:30*
%MOMM*%
%LPD*%
G01*
G04 APERTURE LIST*
G04 Aperture macros list*
%AMRoundRect*
0 Rectangle with rounded corners*
0 $1 Rounding radius*
0 $2 $3 $4 $5 $6 $7 $8 $9 X,Y pos of 4 corners*
0 Add a 4 corners polygon primitive as box body*
4,1,4,$2,$3,$4,$5,$6,$7,$8,$9,$2,$3,0*
0 Add four circle primitives for the rounded corners*
1,1,$1+$1,$2,$3*
1,1,$1+$1,$4,$5*
1,1,$1+$1,$6,$7*
1,1,$1+$1,$8,$9*
0 Add four rect primitives between the rounded corners*
20,1,$1+$1,$2,$3,$4,$5,0*
20,1,$1+$1,$4,$5,$6,$7,0*
20,1,$1+$1,$6,$7,$8,$9,0*
20,1,$1+$1,$8,$9,$2,$3,0*%
G04 Aperture macros list end*
%TA.AperFunction,SMDPad,CuDef*%
%ADD10RoundRect,0.140000X0.170000X-0.140000X0.170000X0.140000X-0.170000X0.140000X-0.170000X-0.140000X0*%
%TD*%
%TA.AperFunction,SMDPad,CuDef*%
%ADD11R,2.000000X2.250000*%
%TD*%
%TA.AperFunction,SMDPad,CuDef*%
%ADD12R,3.000000X1.250000*%
%TD*%
%TA.AperFunction,SMDPad,CuDef*%
%ADD13RoundRect,0.218750X-0.218750X-0.256250X0.218750X-0.256250X0.218750X0.256250X-0.218750X0.256250X0*%
%TD*%
%TA.AperFunction,SMDPad,CuDef*%
%ADD14RoundRect,0.140000X-0.140000X-0.170000X0.140000X-0.170000X0.140000X0.170000X-0.140000X0.170000X0*%
%TD*%
%TA.AperFunction,SMDPad,CuDef*%
%ADD15RoundRect,0.218750X0.256250X-0.218750X0.256250X0.218750X-0.256250X0.218750X-0.256250X-0.218750X0*%
%TD*%
%TA.AperFunction,ViaPad*%
%ADD16C,0.800000*%
%TD*%
%TA.AperFunction,Conductor*%
%ADD17C,0.350000*%
%TD*%
%TA.AperFunction,Conductor*%
%ADD18C,2.250000*%
%TD*%
%TA.AperFunction,Conductor*%
%ADD19C,1.000000*%
%TD*%
%TA.AperFunction,Conductor*%
%ADD20C,0.200000*%
%TD*%
%TA.AperFunction,Conductor*%
%ADD21C,0.800000*%
%TD*%
G04 APERTURE END LIST*
D10*
%TO.P,C2,1*%
%TO.N,Net-(C2-Pad1)*%
X65119850Y-89136800D03*
%TO.P,C2,2*%
%TO.N,GND*%
X65119850Y-88176800D03*
%TD*%
D11*
%TO.P,J2,1,In*%
%TO.N,Net-(J2-In)*%
X70221600Y-96886400D03*
D12*
%TO.P,J2,2,Ext*%
%TO.N,GND*%
X69721600Y-99386400D03*
X69721600Y-94386400D03*
%TD*%
D10*
%TO.P,C1,1*%
%TO.N,Net-(C1-Pad1)*%
X61113350Y-89136800D03*
%TO.P,C1,2*%
%TO.N,GND*%
X61113350Y-88176800D03*
%TD*%
D13*
%TO.P,L3,1,1*%
%TO.N,Net-(C2-Pad1)*%
X66359850Y-89114000D03*
%TO.P,L3,2,2*%
%TO.N,Net-(J3-In)*%
X67934850Y-89114000D03*
%TD*%
D14*
%TO.P,C3,1*%
%TO.N,Net-(J1-In)*%
X59109350Y-96860900D03*
%TO.P,C3,2*%
%TO.N,Net-(C3-Pad2)*%
X60069350Y-96860900D03*
%TD*%
D11*
%TO.P,J1,1,In*%
%TO.N,Net-(J1-In)*%
X51292000Y-93218000D03*
D12*
%TO.P,J1,2,Ext*%
%TO.N,GND*%
X51792000Y-90718000D03*
X51792000Y-95718000D03*
%TD*%
D14*
%TO.P,C4,1*%
%TO.N,Net-(C3-Pad2)*%
X62490150Y-96860900D03*
%TO.P,C4,2*%
%TO.N,Net-(C4-Pad2)*%
X63450150Y-96860900D03*
%TD*%
D15*
%TO.P,L4,1,1*%
%TO.N,GND*%
X61265750Y-98461200D03*
%TO.P,L4,2,2*%
%TO.N,Net-(C3-Pad2)*%
X61265750Y-96886200D03*
%TD*%
D11*
%TO.P,J3,1,In*%
%TO.N,Net-(J3-In)*%
X70197600Y-89114000D03*
D12*
%TO.P,J3,2,Ext*%
%TO.N,GND*%
X69697600Y-91614000D03*
X69697600Y-86614000D03*
%TD*%
D13*
%TO.P,L2,1,1*%
%TO.N,Net-(C1-Pad1)*%
X62332350Y-89114000D03*
%TO.P,L2,2,2*%
%TO.N,Net-(C2-Pad1)*%
X63907350Y-89114000D03*
%TD*%
D14*
%TO.P,C5,1*%
%TO.N,Net-(C4-Pad2)*%
X65916550Y-96860900D03*
%TO.P,C5,2*%
%TO.N,Net-(J2-In)*%
X66876550Y-96860900D03*
%TD*%
D13*
%TO.P,L1,1,1*%
%TO.N,Net-(J1-In)*%
X58332350Y-89114000D03*
%TO.P,L1,2,2*%
%TO.N,Net-(C1-Pad1)*%
X59907350Y-89114000D03*
%TD*%
D15*
%TO.P,L5,1,1*%
%TO.N,GND*%
X64669350Y-98461200D03*
%TO.P,L5,2,2*%
%TO.N,Net-(C4-Pad2)*%
X64669350Y-96886200D03*
%TD*%
D16*
%TO.N,GND*%
X66548000Y-93014800D03*
X61315600Y-93014800D03*
X62331600Y-93014800D03*
X70256400Y-93014800D03*
X60248800Y-93014800D03*
X69342000Y-93014800D03*
X68427600Y-93014800D03*
X60858400Y-99517200D03*
X61518800Y-87376000D03*
X64414400Y-93014800D03*
X64211200Y-99517200D03*
X63449200Y-93014800D03*
X64821750Y-87550600D03*
X65024000Y-99517200D03*
X61671200Y-99517200D03*
X67513200Y-93014800D03*
X60668797Y-87376000D03*
X65481200Y-93014800D03*
X65431350Y-87550600D03*
%TD*%
D17*
%TO.N,GND*%
X64646550Y-98983100D02*
X64973200Y-99309750D01*
X64973200Y-99309750D02*
X64973200Y-99517200D01*
X64646550Y-98983100D02*
X64163250Y-99466400D01*
X64163250Y-99466400D02*
X64160400Y-99466400D01*
X61671200Y-99568000D02*
X61671200Y-99360550D01*
X61671200Y-99360550D02*
X61242950Y-98932300D01*
X60858400Y-99517200D02*
X60858400Y-99316850D01*
X60858400Y-99316850D02*
X61242950Y-98932300D01*
X60668797Y-87376000D02*
X60668797Y-87450247D01*
X60668797Y-87450247D02*
X61113350Y-87894800D01*
X61113350Y-87894800D02*
X61518800Y-87489350D01*
X61518800Y-87489350D02*
X61518800Y-87376000D01*
D18*
%TO.N,Net-(J1-In)*%
X53441600Y-93218000D02*
X57084500Y-96860900D01*
X57084500Y-96860900D02*
X58344350Y-96860900D01*
X57150000Y-89611200D02*
X57647200Y-89114000D01*
X57647200Y-89114000D02*
X58144850Y-89114000D01*
D19*
%TO.N,Net-(C1-Pad1)*%
X62332350Y-89114000D02*
X62289550Y-89156800D01*
X60452950Y-89114000D02*
X59969850Y-89114000D01*
X60495750Y-89156800D02*
X60452950Y-89114000D01*
X62289550Y-89156800D02*
X60495750Y-89156800D01*
D17*
%TO.N,GND*%
X64646550Y-98701100D02*
X64646550Y-98983100D01*
X65126550Y-88137400D02*
X65126550Y-87855400D01*
D20*
X61265750Y-98463700D02*
X61242950Y-98486500D01*
D17*
X61242950Y-98650300D02*
X61242950Y-98932300D01*
X61113350Y-88176800D02*
X61113350Y-87894800D01*
X65126550Y-87855400D02*
X65431350Y-87550600D01*
D20*
X61265750Y-98461200D02*
X61265750Y-98463700D01*
D17*
X65126550Y-87855400D02*
X64821750Y-87550600D01*
D19*
%TO.N,Net-(C2-Pad1)*%
X66254550Y-89156800D02*
X66297350Y-89114000D01*
X63950150Y-89156800D02*
X66254550Y-89156800D01*
X63907350Y-89114000D02*
X63950150Y-89156800D01*
D20*
X66339850Y-89134000D02*
X66359850Y-89114000D01*
X65099850Y-89114000D02*
X65119850Y-89134000D01*
D21*
%TO.N,Net-(C3-Pad2)*%
X60069350Y-96860900D02*
X62490150Y-96860900D01*
D20*
X62464850Y-96886200D02*
X62490150Y-96860900D01*
X61240450Y-96860900D02*
X61265750Y-96886200D01*
D18*
%TO.N,Net-(J1-In)*%
X53543200Y-93218000D02*
X57150000Y-89611200D01*
X53441600Y-93218000D02*
X53543200Y-93218000D01*
D21*
%TO.N,Net-(C4-Pad2)*%
X65796550Y-96886200D02*
X65796550Y-96860900D01*
X64669350Y-96886200D02*
X63515450Y-96886200D01*
D20*
X64644050Y-96860900D02*
X64669350Y-96886200D01*
D21*
X63515450Y-96886200D02*
X63490150Y-96860900D01*
X64669350Y-96886200D02*
X65796550Y-96886200D01*
D20*
X65891250Y-96886200D02*
X65916550Y-96860900D01*
D18*
%TO.N,Net-(J2-In)*%
X67572350Y-96928850D02*
X67564000Y-96937200D01*
X70179150Y-96928850D02*
X67572350Y-96928850D01*
X70221600Y-96886400D02*
X70179150Y-96928850D01*
%TO.N,Net-(J3-In)*%
X70170800Y-89114000D02*
X68122350Y-89114000D01*
%TO.N,Net-(J1-In)*%
X51292000Y-93218000D02*
X53441600Y-93218000D01*
%TD*%
%TA.AperFunction,Conductor*%
%TO.N,GND*%
G36*
X65278676Y-98023685D02*
G01*
X65314811Y-98059217D01*
X65561974Y-98429961D01*
X65582782Y-98496660D01*
X65582800Y-98498744D01*
X65582800Y-99908700D01*
X65563115Y-99975739D01*
X65510311Y-100021494D01*
X65458800Y-100032700D01*
X63827200Y-100032700D01*
X63760161Y-100013015D01*
X63714406Y-99960211D01*
X63703200Y-99908700D01*
X63703200Y-98456992D01*
X63722885Y-98389953D01*
X63733880Y-98375337D01*
X64021748Y-98046345D01*
X64080708Y-98008855D01*
X64115068Y-98004000D01*
X65211637Y-98004000D01*
X65278676Y-98023685D01*
G37*
%TD.AperFunction*%
%TD*%
%TA.AperFunction,Conductor*%
%TO.N,GND*%
G36*
X70664139Y-91002485D02*
G01*
X70709894Y-91055289D01*
X70721100Y-91106800D01*
X70721100Y-94872000D01*
X70701415Y-94939039D01*
X70648611Y-94984794D01*
X70597100Y-94996000D01*
X68239963Y-94996000D01*
X68172924Y-94976315D01*
X68136789Y-94940783D01*
X67259200Y-93624400D01*
X59915600Y-93624400D01*
X59848561Y-93604715D01*
X59802806Y-93551911D01*
X59791600Y-93500400D01*
X59791600Y-92529200D01*
X59811285Y-92462161D01*
X59864089Y-92416406D01*
X59915600Y-92405200D01*
X67309999Y-92405200D01*
X67310000Y-92405200D01*
X68137386Y-91042447D01*
X68189004Y-90995358D01*
X68243380Y-90982800D01*
X70597100Y-90982800D01*
X70664139Y-91002485D01*
G37*
%TD.AperFunction*%
%TD*%
%TA.AperFunction,Conductor*%
%TO.N,GND*%
G36*
X65983039Y-87000085D02*
G01*
X66028794Y-87052889D01*
X66040000Y-87104400D01*
X66040000Y-87958856D01*
X66020315Y-88025895D01*
X66019174Y-88027639D01*
X65970211Y-88101083D01*
X65916646Y-88145944D01*
X65867037Y-88156300D01*
X64407827Y-88156300D01*
X64340788Y-88136615D01*
X64301498Y-88096097D01*
X64228871Y-87975051D01*
X64211200Y-87911254D01*
X64211200Y-87104400D01*
X64230885Y-87037361D01*
X64283689Y-86991606D01*
X64335200Y-86980400D01*
X65916000Y-86980400D01*
X65983039Y-87000085D01*
G37*
%TD.AperFunction*%
%TD*%
%TA.AperFunction,Conductor*%
%TO.N,GND*%
G36*
X61875076Y-98023685D02*
G01*
X61911211Y-98059217D01*
X62158374Y-98429961D01*
X62179182Y-98496660D01*
X62179200Y-98498744D01*
X62179200Y-99908700D01*
X62159515Y-99975739D01*
X62106711Y-100021494D01*
X62055200Y-100032700D01*
X60525200Y-100032700D01*
X60458161Y-100013015D01*
X60412406Y-99960211D01*
X60401200Y-99908700D01*
X60401200Y-98445963D01*
X60420048Y-98380243D01*
X60618775Y-98062280D01*
X60670999Y-98015864D01*
X60723927Y-98004000D01*
X61808037Y-98004000D01*
X61875076Y-98023685D01*
G37*
%TD.AperFunction*%
%TD*%
%TA.AperFunction,Conductor*%
%TO.N,GND*%
G36*
X61969839Y-86898485D02*
G01*
X62015594Y-86951289D01*
X62026800Y-87002800D01*
X62026800Y-87958856D01*
X62007115Y-88025895D01*
X62005974Y-88027639D01*
X61957011Y-88101083D01*
X61903446Y-88145944D01*
X61853837Y-88156300D01*
X60777524Y-88156300D01*
X60750918Y-88152352D01*
X60750762Y-88153137D01*
X60648138Y-88132724D01*
X60551494Y-88113500D01*
X60551491Y-88113500D01*
X60368947Y-88113500D01*
X60301908Y-88093815D01*
X60262618Y-88053297D01*
X60215671Y-87975051D01*
X60198000Y-87911254D01*
X60198000Y-87002800D01*
X60217685Y-86935761D01*
X60270489Y-86890006D01*
X60322000Y-86878800D01*
X61902800Y-86878800D01*
X61969839Y-86898485D01*
G37*
%TD.AperFunction*%
%TD*%
M02*
