%TF.GenerationSoftware,KiCad,Pcbnew,8.0.4*%
%TF.CreationDate,2024-09-11T02:18:50+03:00*%
%TF.ProjectId,micro_diplekser,6d696372-6f5f-4646-9970-6c656b736572,rev?*%
%TF.SameCoordinates,Original*%
%TF.FileFunction,Drillmap*%
%TF.FilePolarity,Positive*%
%FSLAX45Y45*%
G04 Gerber Fmt 4.5, Leading zero omitted, Abs format (unit mm)*
G04 Created by KiCad (PCBNEW 8.0.4) date 2024-09-11 02:18:50*
%MOMM*%
%LPD*%
G01*
G04 APERTURE LIST*
%ADD10C,0.050000*%
%ADD11C,0.200000*%
G04 APERTURE END LIST*
D10*
X8120000Y-10100000D02*
X5019040Y-10100740D01*
X8120000Y-8500000D02*
X5019040Y-8500740D01*
X8120000Y-10100000D02*
X8120000Y-8500000D01*
X5019040Y-8500740D02*
X5019040Y-10100740D01*
D11*
X5277317Y-10414724D02*
X5277317Y-10214724D01*
X5277317Y-10214724D02*
X5324936Y-10214724D01*
X5324936Y-10214724D02*
X5353507Y-10224248D01*
X5353507Y-10224248D02*
X5372555Y-10243295D01*
X5372555Y-10243295D02*
X5382079Y-10262343D01*
X5382079Y-10262343D02*
X5391603Y-10300438D01*
X5391603Y-10300438D02*
X5391603Y-10329010D01*
X5391603Y-10329010D02*
X5382079Y-10367105D01*
X5382079Y-10367105D02*
X5372555Y-10386152D01*
X5372555Y-10386152D02*
X5353507Y-10405200D01*
X5353507Y-10405200D02*
X5324936Y-10414724D01*
X5324936Y-10414724D02*
X5277317Y-10414724D01*
X5477317Y-10414724D02*
X5477317Y-10281390D01*
X5477317Y-10319486D02*
X5486841Y-10300438D01*
X5486841Y-10300438D02*
X5496364Y-10290914D01*
X5496364Y-10290914D02*
X5515412Y-10281390D01*
X5515412Y-10281390D02*
X5534460Y-10281390D01*
X5601126Y-10414724D02*
X5601126Y-10281390D01*
X5601126Y-10214724D02*
X5591603Y-10224248D01*
X5591603Y-10224248D02*
X5601126Y-10233771D01*
X5601126Y-10233771D02*
X5610650Y-10224248D01*
X5610650Y-10224248D02*
X5601126Y-10214724D01*
X5601126Y-10214724D02*
X5601126Y-10233771D01*
X5724936Y-10414724D02*
X5705888Y-10405200D01*
X5705888Y-10405200D02*
X5696364Y-10386152D01*
X5696364Y-10386152D02*
X5696364Y-10214724D01*
X5829698Y-10414724D02*
X5810650Y-10405200D01*
X5810650Y-10405200D02*
X5801126Y-10386152D01*
X5801126Y-10386152D02*
X5801126Y-10214724D01*
X6058269Y-10414724D02*
X6058269Y-10214724D01*
X6058269Y-10214724D02*
X6124936Y-10357581D01*
X6124936Y-10357581D02*
X6191602Y-10214724D01*
X6191602Y-10214724D02*
X6191602Y-10414724D01*
X6372555Y-10414724D02*
X6372555Y-10309962D01*
X6372555Y-10309962D02*
X6363031Y-10290914D01*
X6363031Y-10290914D02*
X6343983Y-10281390D01*
X6343983Y-10281390D02*
X6305888Y-10281390D01*
X6305888Y-10281390D02*
X6286841Y-10290914D01*
X6372555Y-10405200D02*
X6353507Y-10414724D01*
X6353507Y-10414724D02*
X6305888Y-10414724D01*
X6305888Y-10414724D02*
X6286841Y-10405200D01*
X6286841Y-10405200D02*
X6277317Y-10386152D01*
X6277317Y-10386152D02*
X6277317Y-10367105D01*
X6277317Y-10367105D02*
X6286841Y-10348057D01*
X6286841Y-10348057D02*
X6305888Y-10338533D01*
X6305888Y-10338533D02*
X6353507Y-10338533D01*
X6353507Y-10338533D02*
X6372555Y-10329010D01*
X6467793Y-10281390D02*
X6467793Y-10481390D01*
X6467793Y-10290914D02*
X6486841Y-10281390D01*
X6486841Y-10281390D02*
X6524936Y-10281390D01*
X6524936Y-10281390D02*
X6543983Y-10290914D01*
X6543983Y-10290914D02*
X6553507Y-10300438D01*
X6553507Y-10300438D02*
X6563031Y-10319486D01*
X6563031Y-10319486D02*
X6563031Y-10376629D01*
X6563031Y-10376629D02*
X6553507Y-10395676D01*
X6553507Y-10395676D02*
X6543983Y-10405200D01*
X6543983Y-10405200D02*
X6524936Y-10414724D01*
X6524936Y-10414724D02*
X6486841Y-10414724D01*
X6486841Y-10414724D02*
X6467793Y-10405200D01*
X6648745Y-10395676D02*
X6658269Y-10405200D01*
X6658269Y-10405200D02*
X6648745Y-10414724D01*
X6648745Y-10414724D02*
X6639222Y-10405200D01*
X6639222Y-10405200D02*
X6648745Y-10395676D01*
X6648745Y-10395676D02*
X6648745Y-10414724D01*
X6648745Y-10290914D02*
X6658269Y-10300438D01*
X6658269Y-10300438D02*
X6648745Y-10309962D01*
X6648745Y-10309962D02*
X6639222Y-10300438D01*
X6639222Y-10300438D02*
X6648745Y-10290914D01*
X6648745Y-10290914D02*
X6648745Y-10309962D01*
M02*
