%TF.GenerationSoftware,KiCad,Pcbnew,8.0.4*%
%TF.CreationDate,2024-09-11T11:19:10+03:00*%
%TF.ProjectId,micro_diplekser,6d696372-6f5f-4646-9970-6c656b736572,rev?*%
%TF.SameCoordinates,Original*%
%TF.FileFunction,Copper,L1,Top*%
%TF.FilePolarity,Positive*%
%FSLAX46Y46*%
G04 Gerber Fmt 4.6, Leading zero omitted, Abs format (unit mm)*
G04 Created by KiCad (PCBNEW 8.0.4) date 2024-09-11 11:19:10*
%MOMM*%
%LPD*%
G01*
G04 APERTURE LIST*
G04 Aperture macros list*
%AMRoundRect*
0 Rectangle with rounded corners*
0 $1 Rounding radius*
0 $2 $3 $4 $5 $6 $7 $8 $9 X,Y pos of 4 corners*
0 Add a 4 corners polygon primitive as box body*
4,1,4,$2,$3,$4,$5,$6,$7,$8,$9,$2,$3,0*
0 Add four circle primitives for the rounded corners*
1,1,$1+$1,$2,$3*
1,1,$1+$1,$4,$5*
1,1,$1+$1,$6,$7*
1,1,$1+$1,$8,$9*
0 Add four rect primitives between the rounded corners*
20,1,$1+$1,$2,$3,$4,$5,0*
20,1,$1+$1,$4,$5,$6,$7,0*
20,1,$1+$1,$6,$7,$8,$9,0*
20,1,$1+$1,$8,$9,$2,$3,0*%
G04 Aperture macros list end*
%TA.AperFunction,SMDPad,CuDef*%
%ADD10R,2.000000X2.250000*%
%TD*%
%TA.AperFunction,SMDPad,CuDef*%
%ADD11R,3.000000X1.250000*%
%TD*%
%TA.AperFunction,SMDPad,CuDef*%
%ADD12RoundRect,0.225000X0.250000X-0.225000X0.250000X0.225000X-0.250000X0.225000X-0.250000X-0.225000X0*%
%TD*%
%TA.AperFunction,SMDPad,CuDef*%
%ADD13RoundRect,0.225000X-0.225000X-0.250000X0.225000X-0.250000X0.225000X0.250000X-0.225000X0.250000X0*%
%TD*%
%TA.AperFunction,SMDPad,CuDef*%
%ADD14RoundRect,0.218750X0.256250X-0.218750X0.256250X0.218750X-0.256250X0.218750X-0.256250X-0.218750X0*%
%TD*%
%TA.AperFunction,SMDPad,CuDef*%
%ADD15RoundRect,0.218750X-0.218750X-0.256250X0.218750X-0.256250X0.218750X0.256250X-0.218750X0.256250X0*%
%TD*%
%TA.AperFunction,ViaPad*%
%ADD16C,0.800000*%
%TD*%
%TA.AperFunction,ViaPad*%
%ADD17C,0.600000*%
%TD*%
%TA.AperFunction,Conductor*%
%ADD18C,1.000000*%
%TD*%
%TA.AperFunction,Conductor*%
%ADD19C,0.350000*%
%TD*%
%TA.AperFunction,Conductor*%
%ADD20C,2.000000*%
%TD*%
%TA.AperFunction,Conductor*%
%ADD21C,2.250000*%
%TD*%
G04 APERTURE END LIST*
D10*
%TO.P,J3,1,In*%
%TO.N,Net-(J3-In)*%
X80154400Y-96734000D03*
D11*
%TO.P,J3,2,Ext*%
%TO.N,GND*%
X79654400Y-99234000D03*
X79654400Y-94234000D03*
%TD*%
D10*
%TO.P,J2,1,In*%
%TO.N,Net-(J2-In)*%
X80131000Y-88900000D03*
D11*
%TO.P,J2,2,Ext*%
%TO.N,GND*%
X79631000Y-91400000D03*
X79631000Y-86400000D03*
%TD*%
D10*
%TO.P,J1,1,In*%
%TO.N,Net-(J1-In)*%
X51265200Y-93207200D03*
D11*
%TO.P,J1,2,Ext*%
%TO.N,GND*%
X51765200Y-90707200D03*
X51765200Y-95707200D03*
%TD*%
D12*
%TO.P,C1,1*%
%TO.N,Net-(C1-Pad1)*%
X62200000Y-88950000D03*
%TO.P,C1,2*%
%TO.N,GND*%
X62200000Y-87400000D03*
%TD*%
D13*
%TO.P,C3,1*%
%TO.N,Net-(J1-In)*%
X58825000Y-96060900D03*
%TO.P,C3,2*%
%TO.N,Net-(C3-Pad2)*%
X60375000Y-96060900D03*
%TD*%
D14*
%TO.P,L4,1,1*%
%TO.N,GND*%
X62400000Y-98587500D03*
%TO.P,L4,2,2*%
%TO.N,Net-(C3-Pad2)*%
X62400000Y-97012500D03*
%TD*%
D13*
%TO.P,C8,1*%
%TO.N,Net-(J1-In)*%
X58825000Y-97600000D03*
%TO.P,C8,2*%
%TO.N,Net-(C3-Pad2)*%
X60375000Y-97600000D03*
%TD*%
%TO.P,C10,1*%
%TO.N,Net-(C10-Pad1)*%
X70000000Y-97600000D03*
%TO.P,C10,2*%
%TO.N,Net-(J3-In)*%
X71550000Y-97600000D03*
%TD*%
D14*
%TO.P,L5,1,1*%
%TO.N,GND*%
X68000000Y-98587500D03*
%TO.P,L5,2,2*%
%TO.N,Net-(C10-Pad1)*%
X68000000Y-97012500D03*
%TD*%
D13*
%TO.P,C5,1*%
%TO.N,Net-(C3-Pad2)*%
X64450000Y-97600000D03*
%TO.P,C5,2*%
%TO.N,Net-(C10-Pad1)*%
X66000000Y-97600000D03*
%TD*%
D15*
%TO.P,L7,1,1*%
%TO.N,Net-(L2-Pad2)*%
X68812500Y-89000000D03*
%TO.P,L7,2,2*%
%TO.N,Net-(C2-Pad1)*%
X70387500Y-89000000D03*
%TD*%
%TO.P,L3,1,1*%
%TO.N,Net-(C2-Pad1)*%
X75612500Y-89000000D03*
%TO.P,L3,2,2*%
%TO.N,Net-(J2-In)*%
X77187500Y-89000000D03*
%TD*%
D12*
%TO.P,C6,1*%
%TO.N,Net-(C1-Pad1)*%
X63800000Y-88975000D03*
%TO.P,C6,2*%
%TO.N,GND*%
X63800000Y-87425000D03*
%TD*%
D15*
%TO.P,L1,1,1*%
%TO.N,Net-(J1-In)*%
X58812500Y-89000000D03*
%TO.P,L1,2,2*%
%TO.N,Net-(C1-Pad1)*%
X60387500Y-89000000D03*
%TD*%
D13*
%TO.P,C4,1*%
%TO.N,Net-(C3-Pad2)*%
X64450000Y-96000000D03*
%TO.P,C4,2*%
%TO.N,Net-(C10-Pad1)*%
X66000000Y-96000000D03*
%TD*%
D12*
%TO.P,C2,1*%
%TO.N,Net-(C2-Pad1)*%
X72150000Y-89000000D03*
%TO.P,C2,2*%
%TO.N,GND*%
X72150000Y-87450000D03*
%TD*%
%TO.P,C7,1*%
%TO.N,Net-(C2-Pad1)*%
X73800000Y-89000000D03*
%TO.P,C7,2*%
%TO.N,GND*%
X73800000Y-87450000D03*
%TD*%
D13*
%TO.P,C9,1*%
%TO.N,Net-(C10-Pad1)*%
X70000000Y-96000000D03*
%TO.P,C9,2*%
%TO.N,Net-(J3-In)*%
X71550000Y-96000000D03*
%TD*%
D15*
%TO.P,L2,1,1*%
%TO.N,Net-(C1-Pad1)*%
X65612500Y-89000000D03*
%TO.P,L2,2,2*%
%TO.N,Net-(L2-Pad2)*%
X67187500Y-89000000D03*
%TD*%
D16*
%TO.N,GND*%
X76382000Y-93000000D03*
X71149600Y-93000000D03*
X72165600Y-93000000D03*
D17*
X74200000Y-86425000D03*
X62600000Y-86400000D03*
D16*
X80090400Y-93000000D03*
X70082800Y-93000000D03*
X79176000Y-93000000D03*
X78261600Y-93000000D03*
D17*
X72600000Y-86425000D03*
X62000000Y-99600000D03*
D16*
X67965600Y-93000000D03*
D17*
X68400000Y-99600000D03*
D16*
X74248400Y-93000000D03*
X61600000Y-93000000D03*
X73283200Y-93000000D03*
X60584000Y-93000000D03*
D17*
X63400000Y-86400000D03*
X64200000Y-86400000D03*
D16*
X62717600Y-93000000D03*
D17*
X61800000Y-86400000D03*
D16*
X77347200Y-93000000D03*
D17*
X71800000Y-86425000D03*
D16*
X67000400Y-93000000D03*
X65882800Y-93000000D03*
D17*
X77400000Y-86400000D03*
D16*
X75315200Y-93000000D03*
D17*
X67600000Y-99600000D03*
D16*
X64866800Y-93000000D03*
D17*
X77571600Y-99300000D03*
D16*
X59517200Y-93000000D03*
D17*
X73400000Y-86425000D03*
X62800000Y-99600000D03*
D16*
X69032400Y-93000000D03*
X63800000Y-93000000D03*
%TD*%
D18*
%TO.N,Net-(C1-Pad1)*%
X60387500Y-89000000D02*
X65612500Y-89000000D01*
D19*
%TO.N,GND*%
X73800000Y-86825000D02*
X73400000Y-86425000D01*
X73800000Y-87450000D02*
X73800000Y-86825000D01*
X72150000Y-87450000D02*
X72150000Y-86775000D01*
X72150000Y-87450000D02*
X72150000Y-86875000D01*
X63800000Y-86800000D02*
X63400000Y-86400000D01*
X68000000Y-98587500D02*
X68000000Y-99200000D01*
X62400000Y-99200000D02*
X62800000Y-99600000D01*
X62400000Y-99200000D02*
X62000000Y-99600000D01*
X63800000Y-87425000D02*
X63800000Y-86800000D01*
D18*
X79500000Y-86400000D02*
X77400000Y-86400000D01*
D19*
X62200000Y-86800000D02*
X61800000Y-86400000D01*
X72150000Y-86775000D02*
X71800000Y-86425000D01*
X72150000Y-86875000D02*
X72600000Y-86425000D01*
X62400000Y-99000000D02*
X62400000Y-98587500D01*
X63800000Y-86800000D02*
X64200000Y-86400000D01*
X73800000Y-86825000D02*
X74200000Y-86425000D01*
X62400000Y-98587500D02*
X62400000Y-99200000D01*
X68000000Y-99200000D02*
X68400000Y-99600000D01*
D18*
X77571600Y-99300000D02*
X79675000Y-99300000D01*
D19*
X68000000Y-99200000D02*
X67600000Y-99600000D01*
X62200000Y-87400000D02*
X62200000Y-86800000D01*
X62200000Y-86800000D02*
X62600000Y-86400000D01*
D18*
%TO.N,Net-(C2-Pad1)*%
X70387500Y-89000000D02*
X75612500Y-89000000D01*
D20*
%TO.N,Net-(C3-Pad2)*%
X63800000Y-96800000D02*
X61400000Y-96800000D01*
D21*
%TO.N,Net-(J1-In)*%
X57023600Y-96800000D02*
X57600000Y-96800000D01*
X57647200Y-89114000D02*
X58144850Y-89114000D01*
X53543200Y-93218000D02*
X57150000Y-89611200D01*
X53441600Y-93218000D02*
X57023600Y-96800000D01*
X51292000Y-93218000D02*
X53441600Y-93218000D01*
X57150000Y-89611200D02*
X57647200Y-89114000D01*
X53441600Y-93218000D02*
X53543200Y-93218000D01*
D20*
%TO.N,Net-(J2-In)*%
X80000000Y-88900000D02*
X77412500Y-88900000D01*
%TO.N,Net-(J3-In)*%
X72000000Y-96800000D02*
X79913600Y-96800000D01*
%TO.N,Net-(C10-Pad1)*%
X66600000Y-96800000D02*
X69200000Y-96800000D01*
D18*
%TO.N,Net-(L2-Pad2)*%
X67187500Y-89000000D02*
X68812500Y-89000000D01*
%TD*%
%TA.AperFunction,Conductor*%
%TO.N,GND*%
G36*
X62943039Y-98020185D02*
G01*
X62988794Y-98072989D01*
X63000000Y-98124500D01*
X63000000Y-99000000D01*
X63363681Y-99363681D01*
X63397166Y-99425004D01*
X63400000Y-99451362D01*
X63400000Y-99876000D01*
X63380315Y-99943039D01*
X63327511Y-99988794D01*
X63276000Y-100000000D01*
X61524000Y-100000000D01*
X61456961Y-99980315D01*
X61411206Y-99927511D01*
X61400000Y-99876000D01*
X61400000Y-99451362D01*
X61419685Y-99384323D01*
X61436319Y-99363681D01*
X61800000Y-99000000D01*
X61800000Y-98124500D01*
X61819685Y-98057461D01*
X61872489Y-98011706D01*
X61924000Y-98000500D01*
X62876000Y-98000500D01*
X62943039Y-98020185D01*
G37*
%TD.AperFunction*%
%TD*%
%TA.AperFunction,Conductor*%
%TO.N,GND*%
G36*
X64743039Y-86019685D02*
G01*
X64788794Y-86072489D01*
X64800000Y-86124000D01*
X64800000Y-86362455D01*
X64780315Y-86429494D01*
X64779174Y-86431238D01*
X64400000Y-86999999D01*
X64400000Y-87876000D01*
X64380315Y-87943039D01*
X64327511Y-87988794D01*
X64276000Y-88000000D01*
X61724000Y-88000000D01*
X61656961Y-87980315D01*
X61611206Y-87927511D01*
X61600000Y-87876000D01*
X61600000Y-86999999D01*
X61220826Y-86431238D01*
X61200018Y-86364539D01*
X61200000Y-86362455D01*
X61200000Y-86124000D01*
X61219685Y-86056961D01*
X61272489Y-86011206D01*
X61324000Y-86000000D01*
X64676000Y-86000000D01*
X64743039Y-86019685D01*
G37*
%TD.AperFunction*%
%TD*%
%TA.AperFunction,Conductor*%
%TO.N,GND*%
G36*
X68543039Y-98020185D02*
G01*
X68588794Y-98072989D01*
X68600000Y-98124500D01*
X68600000Y-99000000D01*
X68963681Y-99363681D01*
X68997166Y-99425004D01*
X69000000Y-99451362D01*
X69000000Y-99876000D01*
X68980315Y-99943039D01*
X68927511Y-99988794D01*
X68876000Y-100000000D01*
X67124000Y-100000000D01*
X67056961Y-99980315D01*
X67011206Y-99927511D01*
X67000000Y-99876000D01*
X67000000Y-99451362D01*
X67019685Y-99384323D01*
X67036319Y-99363681D01*
X67400000Y-99000000D01*
X67400000Y-98124500D01*
X67419685Y-98057461D01*
X67472489Y-98011706D01*
X67524000Y-98000500D01*
X68476000Y-98000500D01*
X68543039Y-98020185D01*
G37*
%TD.AperFunction*%
%TD*%
%TA.AperFunction,Conductor*%
%TO.N,GND*%
G36*
X80642539Y-90787685D02*
G01*
X80688294Y-90840489D01*
X80699500Y-90892000D01*
X80699500Y-94771938D01*
X80679815Y-94838977D01*
X80627011Y-94884732D01*
X80574788Y-94895936D01*
X78070661Y-94881562D01*
X78003736Y-94861493D01*
X77970702Y-94829961D01*
X77093148Y-93609600D01*
X59149548Y-93609600D01*
X59082509Y-93589915D01*
X59036754Y-93537111D01*
X59025548Y-93485600D01*
X59025548Y-92514400D01*
X59045233Y-92447361D01*
X59098037Y-92401606D01*
X59149548Y-92390400D01*
X77143948Y-92390400D01*
X77972557Y-90833734D01*
X78021434Y-90783807D01*
X78082016Y-90768000D01*
X80575500Y-90768000D01*
X80642539Y-90787685D01*
G37*
%TD.AperFunction*%
%TD*%
%TA.AperFunction,Conductor*%
%TO.N,GND*%
G36*
X74743039Y-86044685D02*
G01*
X74788794Y-86097489D01*
X74800000Y-86149000D01*
X74800000Y-86387455D01*
X74780315Y-86454494D01*
X74779174Y-86456238D01*
X74400000Y-87024999D01*
X74400000Y-87901000D01*
X74380315Y-87968039D01*
X74327511Y-88013794D01*
X74276000Y-88025000D01*
X71724000Y-88025000D01*
X71656961Y-88005315D01*
X71611206Y-87952511D01*
X71600000Y-87901000D01*
X71600000Y-87024999D01*
X71220826Y-86456238D01*
X71200018Y-86389539D01*
X71200000Y-86387455D01*
X71200000Y-86149000D01*
X71219685Y-86081961D01*
X71272489Y-86036206D01*
X71324000Y-86025000D01*
X74676000Y-86025000D01*
X74743039Y-86044685D01*
G37*
%TD.AperFunction*%
%TD*%
%TA.AperFunction,Conductor*%
%TO.N,Net-(C3-Pad2)*%
G36*
X60826182Y-95413091D02*
G01*
X61531454Y-95765727D01*
X61582613Y-95813314D01*
X61600000Y-95876636D01*
X61600000Y-97733637D01*
X61580315Y-97800676D01*
X61544783Y-97836811D01*
X61031239Y-98179174D01*
X60964540Y-98199982D01*
X60962456Y-98200000D01*
X59924000Y-98200000D01*
X59856961Y-98180315D01*
X59811206Y-98127511D01*
X59800000Y-98076000D01*
X59800000Y-95524000D01*
X59819685Y-95456961D01*
X59872489Y-95411206D01*
X59924000Y-95400000D01*
X60770728Y-95400000D01*
X60826182Y-95413091D01*
G37*
%TD.AperFunction*%
%TD*%
%TA.AperFunction,Conductor*%
%TO.N,Net-(J1-In)*%
G36*
X59343039Y-95419685D02*
G01*
X59388794Y-95472489D01*
X59400000Y-95524000D01*
X59400000Y-98076000D01*
X59380315Y-98143039D01*
X59327511Y-98188794D01*
X59276000Y-98200000D01*
X58237544Y-98200000D01*
X58170505Y-98180315D01*
X58168761Y-98179174D01*
X57655217Y-97836811D01*
X57610356Y-97783246D01*
X57600000Y-97733637D01*
X57600000Y-95876636D01*
X57619685Y-95809597D01*
X57668546Y-95765727D01*
X58373818Y-95413091D01*
X58429272Y-95400000D01*
X59276000Y-95400000D01*
X59343039Y-95419685D01*
G37*
%TD.AperFunction*%
%TD*%
M02*
