%TF.GenerationSoftware,KiCad,Pcbnew,8.0.4*%
%TF.CreationDate,2024-09-11T11:19:10+03:00*%
%TF.ProjectId,micro_diplekser,6d696372-6f5f-4646-9970-6c656b736572,rev?*%
%TF.SameCoordinates,Original*%
%TF.FileFunction,Copper,L2,Bot*%
%TF.FilePolarity,Positive*%
%FSLAX46Y46*%
G04 Gerber Fmt 4.6, Leading zero omitted, Abs format (unit mm)*
G04 Created by KiCad (PCBNEW 8.0.4) date 2024-09-11 11:19:10*
%MOMM*%
%LPD*%
G01*
G04 APERTURE LIST*
%TA.AperFunction,SMDPad,CuDef*%
%ADD10R,3.000000X1.250000*%
%TD*%
%TA.AperFunction,ViaPad*%
%ADD11C,0.800000*%
%TD*%
%TA.AperFunction,ViaPad*%
%ADD12C,0.600000*%
%TD*%
G04 APERTURE END LIST*
D10*
%TO.P,J3,2,Ext*%
%TO.N,GND*%
X79654400Y-99234000D03*
X79654400Y-94234000D03*
%TD*%
%TO.P,J2,2,Ext*%
%TO.N,GND*%
X79631000Y-91400000D03*
X79631000Y-86400000D03*
%TD*%
%TO.P,J1,2,Ext*%
%TO.N,GND*%
X51765200Y-90707200D03*
X51765200Y-95707200D03*
%TD*%
D11*
%TO.N,GND*%
X76382000Y-93000000D03*
X71149600Y-93000000D03*
X72165600Y-93000000D03*
D12*
X74200000Y-86425000D03*
X62600000Y-86400000D03*
D11*
X80090400Y-93000000D03*
X70082800Y-93000000D03*
X79176000Y-93000000D03*
X78261600Y-93000000D03*
D12*
X72600000Y-86425000D03*
X62000000Y-99600000D03*
D11*
X67965600Y-93000000D03*
D12*
X68400000Y-99600000D03*
D11*
X74248400Y-93000000D03*
X61600000Y-93000000D03*
X73283200Y-93000000D03*
X60584000Y-93000000D03*
D12*
X63400000Y-86400000D03*
X64200000Y-86400000D03*
D11*
X62717600Y-93000000D03*
D12*
X61800000Y-86400000D03*
D11*
X77347200Y-93000000D03*
D12*
X71800000Y-86425000D03*
D11*
X67000400Y-93000000D03*
X65882800Y-93000000D03*
D12*
X77400000Y-86400000D03*
D11*
X75315200Y-93000000D03*
D12*
X67600000Y-99600000D03*
D11*
X64866800Y-93000000D03*
D12*
X77571600Y-99300000D03*
D11*
X59517200Y-93000000D03*
D12*
X73400000Y-86425000D03*
X62800000Y-99600000D03*
D11*
X69032400Y-93000000D03*
X63800000Y-93000000D03*
%TD*%
%TA.AperFunction,Conductor*%
%TO.N,GND*%
G36*
X80642515Y-85520317D02*
G01*
X80688282Y-85573110D01*
X80699500Y-85624648D01*
X80699500Y-100375648D01*
X80679815Y-100442687D01*
X80627011Y-100488442D01*
X80575530Y-100499648D01*
X50814930Y-100506750D01*
X50747885Y-100487081D01*
X50702118Y-100434288D01*
X50690900Y-100382750D01*
X50690900Y-85631750D01*
X50710585Y-85564711D01*
X50763389Y-85518956D01*
X50814868Y-85507750D01*
X80575472Y-85500648D01*
X80642515Y-85520317D01*
G37*
%TD.AperFunction*%
%TD*%
M02*
