M48
; DRILL file {KiCad 8.0.4} date 2024-09-11T11:19:12+0300
; FORMAT={-:-/ absolute / inch / decimal}
; #@! TF.CreationDate,2024-09-11T11:19:12+03:00
; #@! TF.GenerationSoftware,Kicad,Pcbnew,8.0.4
; #@! TF.FileFunction,Plated,1,2,PTH
FMAT,2
INCH
; #@! TA.AperFunction,Plated,PTH,ViaDrill
T1C0.0118
; #@! TA.AperFunction,Plated,PTH,ViaDrill
T2C0.0157
%
G90
G05
T1
X2.4331Y-3.4016
X2.4409Y-3.9213
X2.4646Y-3.4016
X2.4724Y-3.9213
X2.4961Y-3.4016
X2.5276Y-3.4016
X2.6614Y-3.9213
X2.6929Y-3.9213
X2.8268Y-3.4026
X2.8583Y-3.4026
X2.8898Y-3.4026
X2.9213Y-3.4026
X3.0472Y-3.4016
X3.054Y-3.9094
T2
X2.3432Y-3.6614
X2.3852Y-3.6614
X2.4252Y-3.6614
X2.4692Y-3.6614
X2.5118Y-3.6614
X2.5538Y-3.6614
X2.5938Y-3.6614
X2.6378Y-3.6614
X2.6758Y-3.6614
X2.7178Y-3.6614
X2.7592Y-3.6614
X2.8012Y-3.6614
X2.8412Y-3.6614
X2.8852Y-3.6614
X2.9232Y-3.6614
X2.9652Y-3.6614
X3.0072Y-3.6614
X3.0452Y-3.6614
X3.0812Y-3.6614
X3.1172Y-3.6614
X3.1532Y-3.6614
M30
